<svg width="29" height="29" viewBox="0 0 29 29" fill="none" xmlns="http://www.w3.org/2000/svg">
<path d="M21.46 0H7.54C5.54027 0 3.62244 0.79439 2.20841 2.20841C0.79439 3.62244 0 5.54027 0 7.54V21.46C0 23.4597 0.79439 25.3776 2.20841 26.7916C3.62244 28.2056 5.54027 29 7.54 29H21.46C23.4597 29 25.3776 28.2056 26.7916 26.7916C28.2056 25.3776 29 23.4597 29 21.46V7.54C29 5.54027 28.2056 3.62244 26.7916 2.20841C25.3776 0.79439 23.4597 0 21.46 0ZM15.08 27.84V17.98C15.08 17.8262 15.0189 17.6786 14.9101 17.5699C14.8014 17.4611 14.6538 17.4 14.5 17.4H11.6V13.92H14.5C14.6538 13.92 14.8014 13.8589 14.9101 13.7501C15.0189 13.6414 15.08 13.4938 15.08 13.34V8.7C15.08 7.93087 15.3855 7.19325 15.9294 6.64939C16.4732 6.10553 17.2109 5.8 17.98 5.8H22.62V9.28H20.3C19.8385 9.28 19.3959 9.46332 19.0696 9.78963C18.7433 10.1159 18.56 10.5585 18.56 11.02V13.34C18.56 13.4938 18.6211 13.6414 18.7299 13.7501C18.8386 13.8589 18.9862 13.92 19.14 13.92H22.62V17.4H19.14C18.9862 17.4 18.8386 17.4611 18.7299 17.5699C18.6211 17.6786 18.56 17.8262 18.56 17.98V27.84H15.08ZM27.84 21.46C27.84 23.1521 27.1678 24.7749 25.9713 25.9713C24.7749 27.1678 23.1521 27.84 21.46 27.84H19.72V18.56H23.2C23.3538 18.56 23.5014 18.4989 23.6101 18.3901C23.7189 18.2814 23.78 18.1338 23.78 17.98V13.34C23.78 13.1862 23.7189 13.0386 23.6101 12.9299C23.5014 12.8211 23.3538 12.76 23.2 12.76H19.72V11.02C19.72 10.8662 19.7811 10.7186 19.8899 10.6099C19.9986 10.5011 20.1462 10.44 20.3 10.44H23.2C23.3538 10.44 23.5014 10.3789 23.6101 10.2701C23.7189 10.1614 23.78 10.0138 23.78 9.86V5.22C23.78 5.06617 23.7189 4.91865 23.6101 4.80988C23.5014 4.70111 23.3538 4.64 23.2 4.64H17.98C16.9032 4.64 15.8705 5.06775 15.1091 5.82915C14.3477 6.59054 13.92 7.62322 13.92 8.7V12.76H11.02C10.8662 12.76 10.7186 12.8211 10.6099 12.9299C10.5011 13.0386 10.44 13.1862 10.44 13.34V17.98C10.44 18.1338 10.5011 18.2814 10.6099 18.3901C10.7186 18.4989 10.8662 18.56 11.02 18.56H13.92V27.84H7.54C5.84792 27.84 4.22514 27.1678 3.02866 25.9713C1.83218 24.7749 1.16 23.1521 1.16 21.46V7.54C1.16 5.84792 1.83218 4.22514 3.02866 3.02866C4.22514 1.83218 5.84792 1.16 7.54 1.16H21.46C23.1521 1.16 24.7749 1.83218 25.9713 3.02866C27.1678 4.22514 27.84 5.84792 27.84 7.54V21.46Z" fill="white"/>
</svg>
