<svg width="104" height="22" viewBox="0 0 104 22" fill="none" xmlns="http://www.w3.org/2000/svg">
<path d="M7.51602 21H4.16428C4.07722 21 4.03369 20.9516 4.03369 20.8549V3.90759H0.174116C0.077385 3.90759 0.0290194 3.85922 0.0290194 3.76249L0.0580387 0.439773C0.0580387 0.362388 0.0967312 0.323696 0.174116 0.323696H11.4627C11.5691 0.323696 11.6223 0.362388 11.6223 0.439773V3.76249C11.6223 3.85922 11.5836 3.90759 11.5062 3.90759H7.60308L7.6321 20.8549C7.6321 20.9516 7.5934 21 7.51602 21ZM21.8951 21H12.2897C12.2123 21 12.1736 20.9516 12.1736 20.8549L12.2026 0.439773C12.2026 0.362388 12.2413 0.323696 12.3187 0.323696H21.8661C21.9435 0.323696 21.9822 0.372061 21.9822 0.468793V3.79151C21.9822 3.8689 21.9435 3.90759 21.8661 3.90759H15.772V8.55069H21.8661C21.9435 8.55069 21.9822 8.58938 21.9822 8.66677L22.0112 12.033C22.0112 12.1104 21.9725 12.1491 21.8951 12.1491H15.772V17.3436H21.8951C21.9725 17.3436 22.0112 17.3919 22.0112 17.4887V20.8839C22.0112 20.9613 21.9725 21 21.8951 21ZM27.8876 21H24.9131C24.7584 21 24.681 20.9323 24.681 20.7969L24.652 0.555851C24.652 0.401081 24.7293 0.323696 24.8841 0.323696H27.5684L32.5888 12.033L32.4437 0.555851C32.4437 0.401081 32.5307 0.323696 32.7048 0.323696H35.6503C35.7664 0.323696 35.8244 0.401081 35.8244 0.555851L35.8534 20.8259C35.8534 20.942 35.8051 21 35.7083 21H33.0966L27.9457 10.0597L28.1633 20.7678C28.1633 20.9226 28.0714 21 27.8876 21ZM43.9063 20.971L38.5813 21C38.4845 21 38.4362 20.9516 38.4362 20.8549L38.4942 0.439773C38.4942 0.362388 38.5329 0.323696 38.6103 0.323696L44.1675 0.294676C45.2702 0.265657 46.2666 0.517158 47.1565 1.04918C48.0561 1.5812 48.7719 2.30185 49.3039 3.21112C49.8456 4.11072 50.1165 5.10706 50.1165 6.20012V14.7318C50.1165 15.8732 49.8408 16.9179 49.2894 17.8659C48.7284 18.8042 47.9835 19.5539 47.0549 20.1149C46.1263 20.6663 45.0768 20.9516 43.9063 20.971ZM44.1675 3.84955L42.0926 3.87857L42.0636 17.3436H43.9063C44.6415 17.3436 45.2605 17.0872 45.7636 16.5745C46.2666 16.0619 46.5181 15.4476 46.5181 14.7318V6.1711C46.5181 5.54235 46.2859 4.99582 45.8216 4.53151C45.3573 4.05752 44.8059 3.8302 44.1675 3.84955ZM58.7933 21H55.4415C55.3545 21 55.3109 20.9516 55.3109 20.8549V3.90759H51.4513C51.3546 3.90759 51.3063 3.85922 51.3063 3.76249L51.3353 0.439773C51.3353 0.362388 51.374 0.323696 51.4513 0.323696H62.7399C62.8463 0.323696 62.8995 0.362388 62.8995 0.439773V3.76249C62.8995 3.85922 62.8608 3.90759 62.7834 3.90759H58.8803L58.9093 20.8549C58.9093 20.9516 58.8706 21 58.7933 21ZM69.8206 21.2902C68.7759 21.2902 67.8086 21.0193 66.9187 20.4777C66.0288 19.936 65.3178 19.2105 64.7858 18.3012C64.2634 17.3823 64.0022 16.3811 64.0022 15.2977L64.0603 0.439773C64.0603 0.362388 64.099 0.323696 64.1763 0.323696H67.5136C67.591 0.323696 67.6297 0.362388 67.6297 0.439773V15.2977C67.6297 15.9651 67.8425 16.5359 68.2681 17.0098C68.6937 17.4741 69.2112 17.7063 69.8206 17.7063C70.459 17.7063 70.9911 17.4741 71.4167 17.0098C71.8423 16.5359 72.0551 15.9651 72.0551 15.2977V0.439773C72.0551 0.362388 72.0938 0.323696 72.1712 0.323696H75.5084C75.5858 0.323696 75.6245 0.362388 75.6245 0.439773L75.6825 15.2977C75.6825 16.3908 75.4214 17.3968 74.899 18.3157C74.367 19.225 73.6608 19.9505 72.7806 20.4922C71.9003 21.0242 70.9137 21.2902 69.8206 21.2902ZM83.4887 20.971L78.1637 21C78.067 21 78.0186 20.9516 78.0186 20.8549L78.0766 0.439773C78.0766 0.362388 78.1153 0.323696 78.1927 0.323696L83.7499 0.294676C84.8526 0.265657 85.849 0.517158 86.7389 1.04918C87.6385 1.5812 88.3543 2.30185 88.8863 3.21112C89.428 4.11072 89.6989 5.10706 89.6989 6.20012V14.7318C89.6989 15.8732 89.4232 16.9179 88.8718 17.8659C88.3108 18.8042 87.566 19.5539 86.6373 20.1149C85.7087 20.6663 84.6592 20.9516 83.4887 20.971ZM83.7499 3.84955L81.675 3.87857L81.646 17.3436H83.4887C84.2239 17.3436 84.843 17.0872 85.346 16.5745C85.849 16.0619 86.1005 15.4476 86.1005 14.7318V6.1711C86.1005 5.54235 85.8683 4.99582 85.404 4.53151C84.9397 4.05752 84.3883 3.8302 83.7499 3.84955ZM97.5341 21.2902C96.4797 21.2902 95.5076 21.0193 94.6177 20.4777C93.7374 19.936 93.0264 19.2153 92.4847 18.3157C91.9527 17.4064 91.6867 16.4101 91.6867 15.3267L91.7157 5.90993C91.7157 4.80719 91.9817 3.81569 92.5138 2.93544C93.0361 2.04551 93.7422 1.33454 94.6322 0.802515C95.5221 0.26082 96.4894 -0.0100271 97.5341 -0.0100271C98.6175 -0.0100271 99.5897 0.255984 100.451 0.788006C101.321 1.32003 102.018 2.03584 102.54 2.93544C103.072 3.82537 103.338 4.81686 103.338 5.90993L103.367 15.3267C103.367 16.4101 103.106 17.4016 102.583 18.3012C102.051 19.2105 101.345 19.936 100.465 20.4777C99.5848 21.0193 98.6078 21.2902 97.5341 21.2902ZM97.5341 17.7063C98.1338 17.7063 98.6562 17.4645 99.1012 16.9808C99.5461 16.4875 99.7686 15.9361 99.7686 15.3267L99.7396 5.90993C99.7396 5.25215 99.5316 4.69595 99.1157 4.24131C98.6997 3.78667 98.1725 3.55936 97.5341 3.55936C96.9247 3.55936 96.4024 3.78184 95.9671 4.2268C95.5318 4.67177 95.3141 5.23281 95.3141 5.90993V15.3267C95.3141 15.9748 95.5318 16.5359 95.9671 17.0098C96.4024 17.4741 96.9247 17.7063 97.5341 17.7063Z" fill="#FF6F00"/>
</svg>
