<svg width="28" height="28" viewBox="0 0 28 28" fill="none" xmlns="http://www.w3.org/2000/svg">
<path d="M14 7.58333C12.7309 7.58333 11.4903 7.95966 10.4351 8.66474C9.37988 9.36981 8.55744 10.372 8.07177 11.5444C7.58611 12.7169 7.45904 14.0071 7.70663 15.2518C7.95422 16.4965 8.56534 17.6399 9.46273 18.5373C10.3601 19.4347 11.5035 20.0458 12.7482 20.2934C13.9929 20.541 15.2831 20.4139 16.4556 19.9282C17.628 19.4426 18.6302 18.6201 19.3353 17.5649C20.0403 16.5097 20.4167 15.2691 20.4167 14C20.4147 12.2988 19.7381 10.6678 18.5351 9.46485C17.3322 8.26191 15.7012 7.58525 14 7.58333ZM14 19.25C12.9616 19.25 11.9466 18.9421 11.0833 18.3652C10.2199 17.7883 9.54699 16.9684 9.14963 16.0091C8.75227 15.0498 8.6483 13.9942 8.85088 12.9758C9.05345 11.9574 9.55346 11.0219 10.2877 10.2877C11.0219 9.55346 11.9574 9.05345 12.9758 8.85088C13.9942 8.6483 15.0498 8.75227 16.0091 9.14963C16.9684 9.54699 17.7883 10.2199 18.3652 11.0833C18.9421 11.9466 19.25 12.9616 19.25 14C19.2484 15.3919 18.6948 16.7264 17.7106 17.7106C16.7264 18.6948 15.3919 19.2484 14 19.25ZM20.4167 0H7.58333C5.57281 0.0022773 3.64528 0.801965 2.22362 2.22362C0.801965 3.64528 0.0022773 5.57281 0 7.58333V20.4167C0.0022773 22.4272 0.801965 24.3547 2.22362 25.7764C3.64528 27.198 5.57281 27.9977 7.58333 28H20.4167C22.4272 27.9977 24.3547 27.198 25.7764 25.7764C27.198 24.3547 27.9977 22.4272 28 20.4167V7.58333C27.9977 5.57281 27.198 3.64528 25.7764 2.22362C24.3547 0.801965 22.4272 0.0022773 20.4167 0ZM26.8333 20.4167C26.8314 22.1179 26.1548 23.7489 24.9518 24.9518C23.7489 26.1548 22.1179 26.8314 20.4167 26.8333H7.58333C5.88212 26.8314 4.25113 26.1548 3.04819 24.9518C1.84525 23.7489 1.16859 22.1179 1.16667 20.4167V7.58333C1.16859 5.88212 1.84525 4.25113 3.04819 3.04819C4.25113 1.84525 5.88212 1.16859 7.58333 1.16667H20.4167C22.1179 1.16859 23.7489 1.84525 24.9518 3.04819C26.1548 4.25113 26.8314 5.88212 26.8333 7.58333V20.4167ZM22.75 6.41667C22.75 6.64741 22.6816 6.87297 22.5534 7.06483C22.4252 7.25669 22.243 7.40622 22.0298 7.49453C21.8166 7.58283 21.582 7.60593 21.3557 7.56092C21.1294 7.5159 20.9215 7.40479 20.7584 7.24162C20.5952 7.07846 20.4841 6.87058 20.4391 6.64427C20.3941 6.41796 20.4172 6.18338 20.5055 5.9702C20.5938 5.75702 20.7433 5.57481 20.9352 5.44662C21.127 5.31842 21.3526 5.25 21.5833 5.25C21.8926 5.25035 22.1892 5.37338 22.4079 5.5921C22.6266 5.81081 22.7496 6.10736 22.75 6.41667Z" fill="white"/>
</svg>
